<svg xmlns="http://www.w3.org/2000/svg" viewBox="0 0 36 7.6"><defs><style>.cls-1{fill:#1a1a18;}.cls-1,.cls-2,.cls-3{fill-rule:evenodd;}.cls-2{fill:#303d50;}.cls-3{fill:#e24130;}</style></defs><title>лого рв2</title><path class="cls-1" d="M8.46,2H9.65a.63.63,0,0,0,.7-.64.64.64,0,0,0-.7-.65H8.46V2ZM9.67.2A1.15,1.15,0,0,1,10.9,1.36,1.14,1.14,0,0,1,9.67,2.51H8.46v.7H7.91V.2Z" transform="translate(0 -0.04)"/><polygon class="cls-1" points="14.05 0.16 14.05 0.66 11.91 0.66 11.91 1.38 13.84 1.38 13.84 1.88 11.91 1.88 11.91 2.66 14.13 2.66 14.13 3.17 11.36 3.17 11.36 0.16 14.05 0.16"/><path class="cls-1" d="M15.56,2.24h1.62L16.55.7h-.34l-.65,1.54Zm1.35-2,1.28,3h-.58l-.21-.48h-2l-.2.48h-.6l1.32-3Z" transform="translate(0 -0.04)"/><path class="cls-1" d="M21.84.2v3h-.55V.7H20l-.33,1.76a.84.84,0,0,1-.89.75h-.31V2.69h.27a.36.36,0,0,0,.39-.3L19.49.2Z" transform="translate(0 -0.04)"/><path class="cls-1" d="M23,2.7h1.09c.45,0,.71-.23.71-.64s-.26-.64-.71-.64H23V2.7ZM23,.2V.92h1.14a1.12,1.12,0,0,1,1.21,1.14,1.14,1.14,0,0,1-1.21,1.15h-1.7V.2Z" transform="translate(0 -0.04)"/><polygon class="cls-1" points="26.36 0.16 26.36 1.36 28.29 1.36 28.29 0.16 28.84 0.16 28.84 3.17 28.29 3.17 28.29 1.86 26.36 1.86 26.36 3.17 25.8 3.17 25.8 0.16 26.36 0.16"/><path class="cls-1" d="M31,2.81a1.06,1.06,0,0,0,1.13-1.1,1.13,1.13,0,0,0-2.25,0A1.05,1.05,0,0,0,31,2.81Zm0,.47a1.58,1.58,0,1,1,1.68-1.57A1.58,1.58,0,0,1,31,3.28Z" transform="translate(0 -0.04)"/><polygon class="cls-1" points="35.92 0.16 35.92 0.66 33.78 0.66 33.78 1.38 35.71 1.38 35.71 1.88 33.78 1.88 33.78 2.66 36 2.66 36 3.17 33.23 3.17 33.23 0.16 35.92 0.16"/><path class="cls-1" d="M8.46,7H9.94a.43.43,0,0,0,.48-.42A.39.39,0,0,0,10,6.18H8.46V7Zm0-1.31H9.87a.33.33,0,0,0,.34-.35c0-.18-.1-.35-.42-.35H8.46v.7ZM9.83,4.5c.54,0,.91.3.91.78a.63.63,0,0,1-.25.55.78.78,0,0,1,.47.75,1,1,0,0,1-1,.93H7.91v-3Z" transform="translate(0 -0.04)"/><path class="cls-1" d="M12,6.31h1.19a.66.66,0,1,0,0-1.31H12V6.31ZM13.2,4.5a1.16,1.16,0,1,1,0,2.31H12v.7h-.55v-3Z" transform="translate(0 -0.04)"/><polygon class="cls-1" points="17.59 4.46 17.59 4.96 15.45 4.96 15.45 5.68 17.38 5.68 17.38 6.18 15.45 6.18 15.45 6.96 17.67 6.96 17.67 7.46 14.9 7.46 14.9 4.46 17.59 4.46"/><polygon class="cls-1" points="19.01 4.46 20.18 6.82 20.21 6.82 21.39 4.46 22.17 4.46 22.17 7.46 21.62 7.46 21.62 5.14 21.57 5.14 20.43 7.46 19.93 7.46 18.8 5.14 18.73 5.14 18.73 7.46 18.2 7.46 18.2 4.46 19.01 4.46"/><path class="cls-1" d="M23.89,5a.64.64,0,0,0-.69.66.61.61,0,0,0,.69.63h1.19V5Zm1.74,2.51h-.55V6.8H23.77l-.39.71h-.6l.47-.84a1.07,1.07,0,0,1-.61-1A1.15,1.15,0,0,1,23.86,4.5h1.77Z" transform="translate(0 -0.04)"/><path class="cls-2" d="M1.63,3.37H3.55a.87.87,0,0,0,1-.9.92.92,0,0,0-1-1H1.63V3.37ZM3.62,0A2.39,2.39,0,0,1,6.17,2.47,2.35,2.35,0,0,1,3.62,4.85h-2v1H0V0Z" transform="translate(0 -0.04)"/><path class="cls-3" d="M4.53,5.06c0,.05,0,.1,0,.15a.92.92,0,0,1-1,1H0V7.64H3.62A2.4,2.4,0,0,0,6.17,5.21a2.39,2.39,0,0,0-.23-1.06,2.54,2.54,0,0,1-1.41.91Z" transform="translate(0 -0.04)"/></svg>
